<svg class="hidden" xmlns="http://www.w3.org/2000/svg">
		<symbol viewBox="-143 145 512 512" id="facebook">
        <g>
	        <path d="M113,145c-141.4,0-256,114.6-256,256s114.6,256,256,256s256-114.6,256-256S254.4,145,113,145z M272.8,560.7
		    c-20.8,20.8-44.9,37.1-71.8,48.4c-27.8,11.8-57.4,17.7-88,17.7c-30.5,0-60.1-6-88-17.7c-26.9-11.4-51.1-27.7-71.8-48.4
		    c-20.8-20.8-37.1-44.9-48.4-71.8C-107,461.1-113,431.5-113,401s6-60.1,17.7-88c11.4-26.9,27.7-51.1,48.4-71.8
		    c20.9-20.8,45-37.1,71.9-48.5C52.9,181,82.5,175,113,175s60.1,6,88,17.7c26.9,11.4,51.1,27.7,71.8,48.4
		    c20.8,20.8,37.1,44.9,48.4,71.8c11.8,27.8,17.7,57.4,17.7,88c0,30.5-6,60.1-17.7,88C309.8,515.8,293.5,540,272.8,560.7z"/>
	        <path d="M146.8,313.7c10.3,0,21.3,3.2,21.3,3.2l6.6-39.2c0,0-14-4.8-47.4-4.8c-20.5,0-32.4,7.8-41.1,19.3
		    c-8.2,10.9-8.5,28.4-8.5,39.7v25.7H51.2v38.3h26.5v133h49.6v-133h39.3l2.9-38.3h-42.2v-29.9C127.3,317.4,136.5,313.7,146.8,313.7z"
		        />
            </g>
		</symbol>

        <symbol viewBox="0 0 24 24" id="telegram">
        <path d="m12 0c-6.627 0-12 5.373-12 12s5.373 12 12 12 12-5.373 12-12c0-6.627-5.373-12-12-12zm5.894 8.221-1.97 9.28c-.145.658-.537.818-1.084.508l-3-2.21-1.446 1.394c-.14.18-.357.295-.6.295-.002 0-.003 0-.005 0l.213-3.054 5.56-5.022c.24-.213-.054-.334-.373-.121l-6.869 4.326-2.96-.924c-.64-.203-.658-.64.135-.954l11.566-4.458c.538-.196 1.006.128.832.941z"/>
        </symbol>

        <symbol viewBox="-143 145 512 512" id="instagram">
<g>
	<path d="M113,446c24.8,0,45.1-20.2,45.1-45.1c0-9.8-3.2-18.9-8.5-26.3c-8.2-11.3-21.5-18.8-36.5-18.8s-28.3,7.4-36.5,18.8
		c-5.3,7.4-8.5,16.5-8.5,26.3C68,425.8,88.2,446,113,446z"/>
	<polygon points="211.4,345.9 211.4,308.1 211.4,302.5 205.8,302.5 168,302.6 168.2,346 	"/>
	<path d="M183,401c0,38.6-31.4,70-70,70c-38.6,0-70-31.4-70-70c0-9.3,1.9-18.2,5.2-26.3H10v104.8C10,493,21,504,34.5,504h157
		c13.5,0,24.5-11,24.5-24.5V374.7h-38.2C181.2,382.8,183,391.7,183,401z"/>
	<path d="M113,145c-141.4,0-256,114.6-256,256s114.6,256,256,256s256-114.6,256-256S254.4,145,113,145z M241,374.7v104.8
		c0,27.3-22.2,49.5-49.5,49.5h-157C7.2,529-15,506.8-15,479.5V374.7v-52.3c0-27.3,22.2-49.5,49.5-49.5h157
		c27.3,0,49.5,22.2,49.5,49.5V374.7z"/>
</g> 
        </symbol>

        <symbol viewBox="-143 145 512 512" id="youtube">
<g>
	<polygon points="78.9,450.3 162.7,401.1 78.9,351.9 	"/>
	<path d="M113,145c-141.4,0-256,114.6-256,256s114.6,256,256,256s256-114.6,256-256S254.4,145,113,145z M241,446.8L241,446.8
		c0,44.1-44.1,44.1-44.1,44.1H29.1c-44.1,0-44.1-44.1-44.1-44.1v-91.5c0-44.1,44.1-44.1,44.1-44.1h167.8c44.1,0,44.1,44.1,44.1,44.1
		V446.8z"/>
</g>

        </symbol>

		<symbol viewBox="0 0 24 24" id="home" >
<path d="M15 16C15 15.2044 14.6839 14.4413 14.1213 13.8787C13.5587 13.3161 12.7957 13 12 13C11.2044 13 10.4413 13.3161 9.87868 13.8787C9.31607 14.4413 9 15.2043 9 16V20H4L4 10L8 6.5M12 3L20 10L20 20H15" stroke="#000000" stroke-width="1.5" stroke-linecap="round" stroke-linejoin="round"/>
		</symbol>
            
		<symbol viewBox="0 0 192 192" id="gallery" >
			<path stroke="#000000" stroke-width="12" d="M30 40c0-5.523 4.477-10 10-10h112c5.523 0 10 4.477 10 10v112c0 5.523-4.477 10-10 10H40c-5.523 0-10-4.477-10-10V40Z"/>
			<path stroke="#000000" stroke-linecap="round" stroke-linejoin="round" stroke-width="12" d="m30 138 34-34 24 24 40-40 34 34"/>

		</symbol>

		<symbol viewBox="0 0 24 24" id="arrow-down" >
			<path d="M21 12C21 16.9706 16.9706 21 12 21C7.02944 21 3 16.9706 3 12C3 7.02944 7.02944 3 12 3C16.9706 3 21 7.02944 21 12Z" stroke="#323232" stroke-width="2"/>
			<path d="M12 16L12 8" stroke="#323232" stroke-width="2" stroke-linecap="round" stroke-linejoin="round"/>
			<path d="M9 13L11.913 15.913V15.913C11.961 15.961 12.039 15.961 12.087 15.913V15.913L15 13" stroke="#323232" stroke-width="2" stroke-linecap="round" stroke-linejoin="round"/>

		</symbol>

		<symbol viewBox="0 0 24 24" id="arrow-left" >
			<path d="M21 12C21 16.9706 16.9706 21 12 21C7.02944 21 3 16.9706 3 12C3 7.02944 7.02944 3 12 3C16.9706 3 21 7.02944 21 12Z" stroke="#323232" stroke-width="2"/>
			<path d="M8 12L16 12" stroke="#323232" stroke-width="2" stroke-linecap="round" stroke-linejoin="round"/>
			<path d="M11 9L8.08704 11.913V11.913C8.03897 11.961 8.03897 12.039 8.08704 12.087V12.087L11 15" stroke="#323232" stroke-width="2" stroke-linecap="round" stroke-linejoin="round"/>

		</symbol>



</svg>